<?xml version="1.0" standalone="no"?>
<!DOCTYPE svg PUBLIC "-//W3C//DTD SVG 20010904//EN"
 "http://www.w3.org/TR/2001/REC-SVG-20010904/DTD/svg10.dtd">
<svg version="1.0" xmlns="http://www.w3.org/2000/svg"
 width="1680.000000pt" height="1539.000000pt" viewBox="0 0 1680.000000 1539.000000"
 preserveAspectRatio="xMidYMid meet">

<g transform="translate(0.000000,1539.000000) scale(0.100000,-0.100000)"
fill="#000000" stroke="none">
<path d="M7950 15365 c-203 -43 -384 -151 -574 -340 -268 -266 -516 -653 -762
-1188 l-64 -139 15 -102 c161 -1113 185 -2056 69 -2756 -76 -457 -206 -792
-397 -1020 -25 -30 -44 -56 -42 -58 6 -6 287 110 457 188 1082 502 1884 1263
2278 2164 99 226 174 457 220 679 134 653 54 1370 -212 1901 -179 359 -398
575 -663 656 -90 27 -237 34 -325 15z"/>
<path d="M5100 12863 c-97 -148 -277 -305 -502 -438 -61 -37 -263 -142 -447
-234 -346 -172 -448 -230 -526 -302 -54 -50 -91 -107 -78 -120 5 -5 63 -18
129 -29 303 -50 589 -164 869 -348 411 -269 723 -621 979 -1102 31 -58 56
-103 56 -100 0 3 7 43 15 88 87 498 1 1216 -245 2042 -54 180 -183 568 -199
597 -4 8 -23 -12 -51 -54z"/>
<path d="M3145 11515 c-403 -71 -734 -298 -1050 -720 -650 -866 -1171 -2561
-1590 -5174 -36 -227 -65 -422 -63 -433 2 -14 45 -46 138 -102 998 -599 1486
-1184 1654 -1983 45 -212 59 -374 59 -665 l0 -268 40 -11 c182 -49 455 192
862 762 342 479 762 1202 1321 2276 l79 152 -165 163 c-662 653 -1210 1269
-1555 1747 -730 1014 -891 1782 -523 2501 94 185 180 302 333 456 479 480
1029 544 1522 175 101 -75 287 -257 390 -381 283 -342 584 -825 921 -1480 89
-171 113 -210 119 -195 4 11 8 164 8 340 0 350 -10 452 -66 719 -120 573 -385
1073 -778 1467 -332 332 -720 553 -1126 639 -132 28 -413 36 -530 15z"/>
<path d="M10130 10974 c-58 -41 -106 -79 -108 -84 -6 -17 419 -600 432 -593
38 22 206 148 206 155 0 7 -401 573 -418 590 -4 4 -54 -27 -112 -68z"/>
<path d="M16470 10730 c-140 -33 -460 -106 -710 -163 l-456 -103 -269 -274
c-148 -151 -385 -392 -525 -535 -140 -143 -377 -384 -525 -535 -149 -151 -486
-495 -750 -765 -562 -574 -906 -925 -1208 -1230 l-217 -221 60 -201 c33 -111
60 -208 60 -215 0 -7 -76 -89 -168 -181 l-169 -169 -54 188 c-30 103 -60 194
-68 202 -13 12 -31 -2 -136 -109 -66 -68 -336 -344 -600 -614 -1046 -1067
-1530 -1561 -1769 -1805 -138 -140 -366 -372 -506 -515 -140 -143 -356 -363
-480 -490 -125 -126 -561 -572 -970 -990 -799 -817 -1086 -1109 -1443 -1470
-164 -166 -227 -237 -227 -254 0 -20 3 -22 32 -16 18 4 339 76 713 161 l680
154 240 243 c132 133 355 359 495 502 140 143 372 379 515 525 143 146 375
382 515 525 140 143 374 382 520 530 146 149 493 502 770 785 598 611 912 931
1265 1290 144 146 483 492 755 770 272 278 607 620 745 760 138 140 365 372
505 515 582 593 757 772 996 1015 137 140 479 489 759 775 794 810 1491 1521
1710 1743 110 111 203 209 208 217 13 23 -14 19 -293 -45z"/>
<path d="M3390 10375 c-247 -51 -507 -233 -700 -490 -313 -417 -387 -896 -218
-1414 263 -811 1052 -1791 2723 -3385 567 -541 758 -716 767 -703 4 7 8 26 8
44 0 17 7 63 15 102 50 239 204 459 419 602 83 55 209 112 277 126 16 3 29 11
29 18 0 13 -235 578 -425 1020 -941 2194 -1602 3376 -2139 3823 -269 224 -513
307 -756 257z"/>
<path d="M10630 10264 c-58 -42 -107 -77 -108 -79 -4 -3 48 -182 298 -1035 67
-228 141 -479 163 -557 25 -84 47 -143 54 -143 7 0 45 28 85 62 40 34 76 64
80 68 4 3 -57 228 -137 500 -216 737 -228 780 -222 786 3 3 211 -151 464 -343
252 -191 697 -529 988 -750 292 -222 536 -403 543 -403 9 0 12 44 12 189 l0
188 -57 43 c-63 47 -1284 973 -1886 1430 -87 66 -161 120 -165 120 -4 0 -54
-34 -112 -76z"/>
<path d="M11420 8608 c-27 -19 -711 -589 -754 -628 -5 -5 1 -42 13 -87 48
-178 48 -374 1 -572 -31 -127 -41 -260 -31 -380 5 -57 14 -108 19 -113 9 -9
468 455 656 663 224 249 349 441 391 604 22 86 20 228 -5 308 -54 175 -192
272 -290 205z"/>
<path d="M9824 7273 c-351 -295 -889 -746 -1194 -1002 -1081 -906 -1255 -1054
-1257 -1065 -2 -6 32 -32 75 -58 506 -305 623 -958 256 -1427 -31 -40 -54 -74
-51 -77 2 -3 30 23 62 58 32 34 312 330 624 657 311 328 701 737 865 911 165
173 381 401 481 505 821 860 798 835 791 874 -27 152 -16 320 32 510 24 95 27
124 27 286 0 156 -3 193 -23 273 -14 53 -29 92 -36 92 -7 0 -300 -242 -652
-537z"/>
<path d="M11427 7446 c-42 -46 -77 -88 -77 -93 -1 -24 285 -980 297 -993 11
-13 24 -4 93 65 l80 80 -146 500 c-80 275 -151 506 -158 513 -10 10 -28 -4
-89 -72z"/>
<path d="M6744 5106 c-304 -81 -518 -310 -589 -630 -24 -107 -17 -301 15 -401
108 -343 412 -568 765 -568 144 0 236 21 360 83 162 81 282 198 360 355 70
139 88 229 83 399 -4 126 -8 151 -38 240 -61 179 -192 343 -350 436 -36 22
-108 53 -160 71 -83 28 -111 32 -225 36 -113 3 -142 0 -221 -21z m377 -268
c93 -34 152 -71 218 -137 95 -95 161 -249 161 -374 0 -300 -256 -551 -561
-550 -153 1 -280 54 -389 163 -111 111 -163 238 -163 395 1 257 192 476 463
529 60 11 206 -3 271 -26z"/>
<path d="M448 4888 c-12 -10 -18 -52 -28 -200 l-12 -187 244 -248 c437 -442
691 -733 958 -1097 50 -69 96 -126 101 -126 21 0 239 276 239 303 0 29 -78
216 -132 317 -169 318 -440 619 -803 892 -177 133 -518 358 -543 358 -4 0 -15
-6 -24 -12z"/>
<path d="M404 4316 c-17 -12 -23 -30 -29 -88 -3 -40 -17 -135 -29 -211 l-22
-137 46 -53 c145 -163 397 -489 517 -667 102 -152 213 -342 303 -517 23 -46
44 -83 46 -83 4 0 95 82 272 247 l67 62 -25 48 c-34 66 -227 352 -335 498
-191 258 -446 559 -676 798 -110 114 -115 118 -135 103z"/>
<path d="M309 3747 c-15 -11 -69 -176 -69 -209 0 -7 37 -76 81 -153 107 -183
223 -407 300 -575 60 -133 175 -417 199 -495 7 -22 16 -43 19 -48 8 -8 168
104 238 167 l45 41 -120 240 c-122 243 -249 465 -357 630 -86 131 -304 416
-317 415 -2 0 -10 -6 -19 -13z"/>
<path d="M182 3343 c-17 -16 -82 -163 -82 -187 0 -4 29 -67 64 -140 74 -151
120 -277 171 -469 34 -130 95 -461 95 -519 0 -16 2 -28 5 -28 8 0 189 113 219
137 27 21 28 27 22 72 -11 87 -84 355 -131 487 -26 71 -78 194 -116 274 -72
149 -207 390 -220 390 -4 0 -16 -8 -27 -17z"/>
</g>
</svg>
