<?xml version="1.0" standalone="no"?>
<!DOCTYPE svg PUBLIC "-//W3C//DTD SVG 20010904//EN"
 "http://www.w3.org/TR/2001/REC-SVG-20010904/DTD/svg10.dtd">
<svg version="1.0" xmlns="http://www.w3.org/2000/svg"
 width="4000.000000pt" height="4000.000000pt" viewBox="0 0 4000.000000 4000.000000"
 preserveAspectRatio="xMidYMid meet">
<metadata>
Created by potrace 1.11, written by Peter Selinger 2001-2013
</metadata>
<g transform="translate(0.000000,4000.000000) scale(0.100000,-0.100000)"
fill="#000000" stroke="none">
<path d="M20650 27022 c-19 -1 -70 -9 -113 -18 -66 -12 -104 -25 -207 -68 -41
-18 -133 -78 -205 -134 -126 -99 -329 -315 -415 -442 -8 -12 -33 -48 -55 -79
-22 -31 -45 -66 -52 -76 -165 -270 -170 -278 -282 -500 -127 -249 -173 -361
-167 -409 4 -36 27 -205 41 -304 3 -18 8 -54 11 -80 3 -26 7 -58 9 -72 2 -14
7 -52 10 -85 3 -33 8 -76 10 -95 3 -19 7 -60 10 -90 3 -30 7 -77 10 -105 2
-27 7 -79 10 -115 2 -36 7 -101 11 -145 30 -397 34 -954 9 -1260 -2 -27 -7
-84 -10 -125 -3 -41 -8 -86 -10 -99 -3 -14 -7 -51 -10 -84 -4 -32 -8 -66 -10
-75 -12 -67 -19 -109 -20 -122 -1 -8 -4 -28 -8 -45 -4 -16 -9 -45 -12 -63 -10
-63 -74 -298 -104 -383 -30 -86 -112 -262 -152 -329 -33 -55 -115 -163 -143
-189 -14 -14 -26 -28 -26 -32 0 -9 104 28 255 91 250 105 613 289 762 386 28
19 54 34 57 34 7 0 265 170 282 185 6 6 23 19 39 30 50 36 160 118 165 124 3
4 21 18 40 33 19 14 49 39 67 54 17 16 55 49 85 73 86 72 356 348 442 451 43
52 86 104 95 115 55 67 271 385 271 400 0 3 11 23 25 45 28 44 128 240 168
330 114 254 227 639 252 865 4 33 9 69 11 80 19 91 25 475 11 650 -7 85 -10
109 -22 188 -3 17 -8 48 -10 67 -3 19 -14 76 -25 125 -11 50 -22 99 -25 110
-26 124 -100 327 -177 485 -152 314 -341 524 -570 634 -41 19 -85 38 -99 40
-13 2 -24 5 -24 6 0 3 -43 11 -95 16 -30 3 -59 6 -65 7 -5 1 -26 1 -45 -1z"/>
<path d="M17715 24533 c-44 -81 -166 -216 -265 -293 -25 -19 -47 -37 -50 -40
-30 -31 -258 -169 -395 -238 -60 -31 -113 -60 -116 -65 -3 -5 -9 -8 -13 -8
-15 2 -391 -183 -486 -239 -113 -66 -211 -150 -241 -207 -19 -36 2 -48 106
-63 128 -17 308 -65 420 -111 17 -7 36 -13 43 -15 42 -8 298 -140 380 -195 24
-16 45 -29 48 -29 3 0 46 -30 159 -112 96 -69 345 -307 430 -409 114 -137 270
-363 331 -479 16 -30 33 -58 39 -62 5 -4 6 -8 1 -8 -5 0 -3 -7 4 -15 6 -8 24
-40 40 -71 29 -61 34 -59 44 16 3 19 7 45 10 58 20 94 29 586 12 732 -4 36 -8
83 -10 105 -2 22 -6 56 -9 75 -4 19 -9 58 -12 85 -3 28 -8 59 -10 70 -4 18 -9
49 -20 120 -4 25 -9 51 -30 150 -10 44 -19 90 -20 102 -2 11 -6 30 -9 41 -4
11 -8 29 -10 39 -2 10 -11 45 -20 79 -8 33 -17 69 -19 80 -2 10 -7 26 -10 34
-3 8 -13 44 -22 80 -19 74 -18 70 -34 130 -16 57 -44 146 -89 285 -20 61 -37
115 -38 120 -4 16 -59 174 -84 238 -12 31 -25 57 -28 57 -4 0 -16 -17 -27 -37z"/>
<path d="M15836 23169 c-228 -23 -418 -91 -629 -224 -26 -16 -47 -33 -47 -37
0 -5 -6 -8 -14 -8 -8 0 -16 -3 -18 -7 -1 -5 -25 -26 -53 -47 -63 -50 -236
-223 -296 -296 -95 -116 -239 -321 -239 -341 0 -5 -4 -9 -10 -9 -5 0 -10 -4
-10 -10 0 -5 -10 -24 -22 -42 -13 -19 -34 -56 -48 -83 -14 -28 -28 -52 -31
-55 -10 -8 -213 -416 -214 -430 -1 -3 -11 -27 -24 -55 -71 -157 -281 -713
-296 -785 -1 -3 -22 -70 -48 -150 -46 -145 -94 -304 -102 -337 -2 -10 -16 -58
-30 -108 -37 -129 -86 -307 -90 -330 -2 -11 -21 -92 -44 -180 -22 -88 -42
-173 -45 -188 -3 -16 -9 -43 -15 -60 -5 -18 -15 -59 -22 -92 -15 -70 -16 -74
-19 -77 -2 -4 -9 -35 -14 -68 -2 -14 -9 -45 -14 -70 -6 -25 -13 -57 -16 -72
-2 -15 -7 -31 -10 -36 -2 -4 -7 -26 -10 -47 -3 -22 -21 -114 -41 -205 -19 -91
-37 -178 -40 -195 -2 -16 -11 -64 -20 -105 -8 -41 -17 -88 -20 -105 -2 -16 -7
-41 -10 -55 -3 -14 -10 -50 -15 -80 -6 -30 -12 -66 -15 -80 -3 -14 -8 -38 -10
-55 -3 -16 -7 -41 -10 -55 -10 -47 -15 -75 -20 -105 -2 -16 -11 -70 -20 -120
-9 -49 -18 -101 -20 -115 -6 -41 -44 -273 -49 -295 -8 -43 -16 -92 -21 -127
-9 -64 -14 -102 -19 -123 -2 -11 -7 -42 -10 -70 -4 -27 -9 -62 -11 -77 -11
-62 -14 -85 -20 -115 -5 -32 -4 -33 95 -90 95 -55 373 -231 395 -250 6 -5 39
-29 75 -54 65 -44 127 -90 165 -121 11 -9 49 -39 85 -68 238 -188 474 -440
625 -665 77 -115 89 -135 148 -250 55 -108 109 -235 100 -235 -3 0 -1 -6 4
-12 29 -37 115 -366 129 -493 2 -22 6 -51 9 -65 5 -23 12 -92 21 -210 4 -61 5
-381 1 -452 -3 -52 -1 -59 21 -74 41 -27 121 -19 202 19 25 12 47 24 50 27 3
3 28 21 55 40 65 45 256 238 333 335 4 6 30 39 57 75 28 36 52 67 55 70 3 3
17 21 30 40 13 19 27 37 30 40 4 3 27 34 51 70 24 36 46 67 50 70 3 3 59 86
124 185 64 99 126 192 136 207 10 15 19 31 19 37 0 5 3 11 8 13 4 2 27 35 50
73 24 39 47 77 52 85 22 34 205 347 223 380 10 19 32 58 48 85 16 28 43 75 59
105 17 30 41 73 54 95 12 22 40 72 61 110 50 92 82 151 110 200 37 66 154 287
292 555 47 91 97 185 110 209 13 24 23 49 21 57 -2 7 -133 145 -293 306 -159
161 -349 356 -421 433 -211 226 -252 270 -274 295 -12 14 -36 41 -53 60 -18
19 -61 69 -97 110 -36 41 -70 80 -76 86 -5 6 -26 31 -45 54 -18 23 -43 52 -54
64 -28 29 -250 308 -304 381 -24 33 -48 62 -53 63 -4 2 -8 8 -8 13 0 5 -20 35
-43 66 -56 74 -229 333 -247 368 -3 6 -31 53 -62 106 -32 53 -62 107 -68 120
-6 13 -24 49 -41 79 -17 30 -32 60 -33 65 -1 6 -14 35 -28 65 -65 138 -111
268 -164 458 -2 7 -4 13 -4 15 -5 14 -22 89 -26 112 -3 17 -7 41 -10 55 -9 54
-18 190 -18 285 0 205 33 380 108 579 32 85 117 255 157 314 16 24 29 47 29
52 0 4 3 10 8 12 4 2 36 41 72 88 83 110 289 313 333 329 6 2 23 15 36 28 14
12 30 23 34 23 5 0 23 11 41 25 18 14 40 25 49 25 10 0 17 4 17 8 0 5 19 17
43 27 153 66 141 62 267 91 108 24 269 24 395 -1 140 -28 371 -143 480 -240
17 -14 45 -38 64 -53 45 -35 144 -132 211 -208 90 -100 104 -117 155 -184 28
-36 52 -67 56 -70 3 -3 21 -27 40 -55 18 -27 37 -52 40 -55 10 -8 189 -278
189 -285 0 -3 5 -11 10 -18 18 -20 89 -131 90 -139 0 -4 12 -24 26 -45 14 -21
30 -47 35 -58 5 -11 18 -33 29 -50 11 -16 23 -37 27 -45 4 -8 30 -55 58 -105
82 -143 180 -326 296 -557 60 -118 78 -143 78 -111 0 10 3 65 7 123 13 172 7
476 -11 627 -24 200 -56 362 -109 548 -61 215 -189 515 -291 680 -13 22 -31
52 -40 68 -19 34 -151 222 -175 251 -11 11 -28 32 -40 46 -203 241 -453 458
-675 586 -131 76 -372 185 -438 198 -12 3 -38 10 -57 16 -41 13 -43 14 -140
33 -141 29 -303 39 -434 26z"/>
<path d="M22784 22657 c-23 -18 -52 -39 -64 -47 -76 -51 -110 -83 -102 -93 20
-26 241 -336 287 -402 27 -38 51 -72 54 -75 4 -3 22 -29 41 -57 19 -29 39 -53
43 -53 11 0 215 143 220 155 4 8 -82 137 -136 205 -7 8 -59 82 -117 163 -139
197 -170 237 -178 236 -4 0 -26 -14 -48 -32z"/>
<path d="M29355 22433 c-11 -2 -72 -16 -135 -29 -63 -14 -223 -50 -355 -81
-303 -69 -415 -94 -640 -144 -99 -22 -193 -44 -210 -48 -16 -5 -48 -12 -70
-16 -35 -6 -58 -25 -184 -153 -142 -145 -836 -853 -1021 -1042 -258 -262 -885
-902 -1017 -1036 -81 -84 -302 -309 -490 -500 -188 -192 -414 -423 -503 -514
-89 -91 -197 -201 -242 -246 l-80 -81 47 -154 c25 -85 48 -163 50 -173 3 -10
9 -34 16 -53 13 -41 27 -23 -171 -225 l-154 -159 -33 113 c-68 232 -83 276
-97 281 -14 6 -30 -9 -358 -345 -78 -81 -312 -319 -518 -529 -206 -210 -411
-419 -455 -464 -44 -45 -263 -268 -487 -496 -223 -228 -457 -466 -518 -529
-62 -63 -286 -292 -499 -509 -212 -216 -437 -446 -500 -510 -62 -64 -172 -174
-243 -246 -153 -155 -121 -122 -276 -281 -243 -251 -312 -321 -312 -316 0 2
-12 -10 -28 -29 -15 -19 -127 -135 -250 -259 -122 -124 -222 -225 -222 -226 0
0 -108 -111 -240 -245 -132 -134 -269 -274 -305 -311 -35 -38 -69 -68 -75 -68
-5 0 -10 -4 -10 -10 0 -5 -48 -58 -106 -117 -291 -298 -384 -391 -384 -385 0
4 -7 -4 -16 -17 -32 -45 -87 -100 -96 -95 -5 3 -7 1 -6 -4 2 -5 -46 -59 -107
-120 -105 -107 -132 -143 -120 -163 3 -4 16 -4 29 1 12 4 36 11 52 13 16 3
130 29 254 57 124 29 239 54 255 57 37 6 46 9 65 15 8 3 42 12 75 19 33 7 62
13 65 14 22 5 97 19 105 20 6 0 15 3 20 7 6 3 26 9 45 12 19 3 133 28 252 55
l217 49 225 228 c124 126 226 230 226 232 0 8 30 32 39 32 6 0 11 4 11 9 0 5
55 65 123 134 457 465 911 929 1002 1022 59 61 163 166 231 235 69 69 129 130
134 135 27 28 544 556 670 685 80 82 303 310 496 507 194 197 421 429 505 515
85 86 314 319 509 518 195 199 411 419 479 489 68 69 296 302 507 516 210 215
446 455 524 535 78 80 310 316 515 525 205 209 428 436 495 505 67 69 294 300
504 514 209 214 437 446 506 516 69 70 298 305 510 520 536 547 599 611 1000
1020 195 199 452 461 570 581 118 121 213 219 211 219 -3 0 4 7 15 15 19 15
15 16 -21 8z"/>
<path d="M16108 22035 c-2 -1 -30 -5 -63 -8 -121 -12 -271 -71 -405 -162 -96
-64 -108 -74 -200 -165 -133 -133 -218 -248 -298 -405 -41 -81 -104 -235 -96
-235 3 0 0 -8 -5 -19 -42 -78 -78 -415 -57 -536 3 -16 8 -52 11 -78 27 -236
164 -607 324 -875 17 -29 31 -55 31 -58 0 -3 15 -29 34 -57 18 -29 59 -92 91
-142 32 -49 60 -92 64 -95 3 -3 13 -17 21 -32 40 -71 388 -525 467 -608 18
-19 33 -38 33 -42 0 -4 6 -13 13 -20 7 -7 49 -53 92 -103 43 -49 90 -103 106
-120 15 -16 38 -42 50 -56 360 -404 1052 -1105 1585 -1605 135 -127 315 -296
363 -342 31 -29 91 -85 135 -125 43 -40 96 -89 117 -110 43 -42 43 -42 53 48
21 199 121 401 270 550 98 97 144 131 261 192 40 21 171 70 190 71 19 2 16 40
-8 93 -13 30 -43 101 -67 159 -23 58 -46 110 -50 115 -4 6 -11 21 -15 35 -6
21 -42 108 -100 245 -204 477 -321 749 -336 783 -10 23 -28 61 -38 85 -11 23
-38 85 -61 137 -23 52 -51 115 -62 140 -26 57 -61 135 -81 180 -8 19 -39 85
-67 145 -48 101 -71 152 -75 165 -2 6 -71 152 -138 290 -28 58 -51 107 -52
110 -2 9 -215 435 -273 545 -32 61 -73 139 -92 175 -18 36 -41 73 -49 84 -9
10 -14 19 -12 20 3 0 -7 21 -21 46 -14 25 -54 95 -88 155 -79 138 -83 145
-149 252 -58 94 -222 345 -231 353 -3 3 -17 21 -30 40 -14 19 -28 40 -33 45
-4 6 -25 33 -45 61 -21 27 -43 57 -50 65 -7 7 -20 23 -30 35 -40 49 -150 170
-193 213 -205 202 -446 338 -634 357 -22 2 -55 6 -72 8 -18 2 -34 2 -35 1z"/>
<path d="M23250 21924 c-119 -87 -140 -105 -134 -116 5 -8 26 -78 80 -263 8
-27 16 -54 18 -60 1 -5 8 -30 15 -55 7 -25 28 -97 47 -160 19 -63 39 -133 45
-155 6 -22 14 -47 17 -55 3 -8 6 -19 7 -25 2 -5 15 -50 30 -100 15 -49 35
-119 45 -155 10 -36 41 -144 70 -240 29 -96 53 -182 55 -190 2 -8 12 -44 24
-80 11 -36 27 -90 36 -122 9 -31 22 -58 28 -61 7 -3 29 9 49 27 19 17 57 50
83 73 l48 41 -16 54 c-8 29 -30 100 -47 158 -17 58 -39 134 -50 170 -10 36
-52 182 -95 325 -42 143 -78 267 -80 275 -2 8 -15 53 -30 100 -28 92 -33 109
-40 141 -2 11 -7 29 -10 40 -8 24 -1 24 27 0 20 -17 207 -159 284 -216 15 -11
32 -24 38 -30 6 -5 67 -52 136 -104 148 -112 361 -272 375 -283 38 -30 99 -76
122 -94 34 -25 226 -171 423 -320 80 -61 210 -160 290 -220 80 -60 147 -111
150 -114 23 -25 138 -100 150 -98 13 3 15 30 17 178 2 166 -6 220 -29 220 -7
0 -131 92 -148 110 -3 3 -12 10 -21 15 -9 6 -90 66 -179 135 -90 69 -204 155
-254 193 -50 37 -98 73 -106 80 -8 7 -31 23 -50 37 -19 13 -37 27 -40 30 -3 4
-36 30 -75 59 -38 29 -77 58 -85 64 -63 50 -255 195 -273 207 -12 8 -38 27
-57 42 -19 16 -40 32 -45 36 -6 4 -31 24 -57 45 -25 20 -51 37 -56 37 -6 0
-12 4 -14 8 -1 4 -32 30 -68 57 -36 27 -66 53 -68 57 -2 4 -10 8 -17 8 -7 0
-15 4 -17 8 -1 5 -30 28 -63 53 -33 24 -71 54 -85 67 -14 12 -28 22 -32 22 -3
0 -13 6 -20 13 -7 6 -36 29 -63 49 -66 50 -92 70 -139 107 -21 17 -46 31 -55
30 -9 0 -50 -25 -91 -55z"/>
<path d="M24057 20269 c-25 -7 -104 -63 -132 -93 -5 -6 -41 -37 -80 -68 -38
-31 -82 -67 -96 -80 -15 -13 -46 -39 -69 -58 -24 -19 -62 -51 -85 -70 -22 -19
-63 -53 -89 -75 -27 -22 -58 -48 -70 -59 -11 -10 -41 -35 -66 -55 -25 -20 -61
-51 -82 -69 l-36 -34 17 -51 c10 -29 18 -55 19 -60 0 -4 3 -24 6 -45 14 -80
16 -110 16 -207 -1 -126 -3 -149 -28 -260 -12 -49 -24 -103 -27 -120 -4 -16
-8 -91 -9 -165 -3 -138 8 -240 25 -240 11 0 496 492 620 628 62 69 206 240
229 272 13 19 27 37 30 40 11 9 100 156 100 165 0 5 6 16 14 24 7 9 26 57 41
106 66 207 19 436 -111 538 -35 27 -103 46 -137 36z"/>
<path d="M23039 19434 c-19 -16 -39 -34 -45 -39 -6 -6 -31 -27 -54 -46 -24
-18 -62 -50 -84 -70 -23 -19 -152 -128 -287 -241 -135 -113 -259 -216 -275
-230 -16 -14 -58 -50 -94 -80 -59 -49 -111 -92 -415 -348 -55 -46 -106 -89
-113 -94 -7 -6 -18 -16 -25 -21 -7 -6 -41 -35 -76 -64 -35 -29 -70 -58 -76
-64 -6 -7 -29 -25 -50 -42 -21 -16 -43 -35 -49 -40 -14 -14 -317 -268 -381
-320 -26 -22 -58 -49 -71 -60 -29 -27 -59 -51 -124 -105 -30 -24 -89 -73 -130
-108 -41 -35 -87 -74 -101 -85 -110 -92 -142 -119 -204 -172 -38 -33 -108 -91
-155 -129 -47 -38 -94 -77 -105 -88 -11 -10 -40 -35 -65 -56 -80 -67 -105 -93
-94 -98 56 -24 191 -121 258 -187 79 -77 186 -223 186 -253 0 -8 5 -14 10 -14
6 0 10 -9 10 -19 0 -11 4 -22 9 -26 10 -5 36 -84 56 -165 27 -108 27 -300 0
-402 -9 -35 -18 -67 -19 -73 -2 -11 -20 -60 -44 -120 -18 -44 -80 -151 -109
-186 -10 -12 -30 -36 -45 -54 -16 -18 -28 -40 -28 -49 0 -11 8 -8 28 13 241
254 324 341 357 376 57 60 332 350 380 400 22 23 108 113 190 200 83 87 173
181 200 210 28 28 109 113 180 189 72 76 159 168 195 205 36 37 126 132 200
211 74 78 160 169 190 200 30 31 120 126 200 210 80 84 163 172 185 195 57 59
376 395 400 421 11 11 46 49 78 82 32 34 55 66 52 72 -8 14 -19 132 -19 205 1
113 11 189 44 328 11 45 23 105 27 132 9 63 9 235 0 295 -4 25 -9 59 -11 75
-2 17 -10 44 -16 60 -6 17 -11 31 -11 33 4 12 -1 31 -12 46 -12 17 -15 16 -48
-10z"/>
<path d="M24065 19133 c-17 -20 -51 -60 -76 -87 -43 -46 -46 -52 -37 -80 5
-17 14 -46 19 -63 18 -64 28 -99 43 -148 8 -27 26 -88 40 -135 84 -289 98
-336 100 -345 2 -5 5 -17 8 -25 10 -26 59 -201 64 -223 2 -11 10 -27 18 -35
13 -13 25 -4 95 68 45 46 81 86 81 89 0 4 -14 53 -31 111 -17 58 -34 119 -39
135 -5 17 -27 93 -50 170 -53 179 -81 277 -84 290 -1 6 -12 42 -23 80 -12 39
-32 106 -45 150 -15 50 -29 81 -39 83 -8 1 -28 -14 -44 -35z"/>
<path d="M19438 16769 c-31 -5 -82 -15 -112 -24 -31 -9 -58 -16 -61 -16 -3 1
-40 -17 -82 -40 -76 -39 -186 -118 -209 -149 -7 -8 -24 -28 -40 -45 -76 -82
-157 -248 -184 -380 -17 -77 -21 -219 -8 -281 5 -27 11 -60 13 -74 10 -70 56
-173 117 -265 41 -60 203 -225 223 -225 2 0 27 -13 55 -30 27 -16 50 -27 50
-25 0 3 10 -1 23 -9 12 -8 49 -22 82 -31 33 -9 69 -19 80 -22 11 -3 72 -6 136
-8 240 -7 431 72 600 247 58 59 150 191 155 222 1 6 10 29 19 51 56 130 66
347 24 510 -101 388 -486 647 -881 594z m211 -274 c11 -3 28 -7 38 -9 38 -8
110 -41 158 -72 202 -132 295 -375 229 -599 -68 -232 -299 -403 -534 -397 -58
2 -134 13 -152 23 -10 5 -18 7 -18 3 0 -3 -11 1 -25 10 -13 9 -29 16 -35 16
-15 0 -105 61 -146 97 -77 71 -153 209 -168 308 -8 49 -9 162 -1 193 3 12 7
32 10 44 8 36 63 137 103 188 78 99 215 180 329 196 26 3 49 7 51 9 6 5 140
-3 161 -10z"/>
<path d="M13043 16532 c-6 -4 -14 -43 -17 -87 -14 -189 -17 -232 -21 -260 -2
-17 -1 -36 3 -42 4 -7 107 -113 227 -236 241 -244 336 -344 435 -457 36 -40
76 -85 88 -99 34 -37 146 -168 160 -186 16 -21 137 -170 142 -175 3 -3 25 -32
50 -65 25 -33 48 -61 53 -63 4 -2 7 -10 7 -17 0 -7 4 -15 8 -17 5 -1 33 -37
62 -78 29 -41 57 -79 61 -84 11 -13 77 59 188 205 78 102 78 106 30 201 -5 10
-9 23 -9 29 0 15 -100 218 -135 274 -14 22 -28 47 -32 55 -9 21 -56 84 -65 88
-5 2 -8 9 -8 16 0 7 -8 21 -17 32 -10 10 -45 53 -78 94 -91 114 -299 320 -430
425 -28 22 -56 45 -63 52 -7 7 -17 13 -20 13 -4 0 -22 12 -39 28 -31 27 -56
46 -90 70 -10 6 -67 46 -126 87 -59 41 -110 75 -113 75 -4 0 -117 71 -176 112
-29 19 -55 23 -75 10z"/>
<path d="M12996 15954 c-9 -8 -16 -25 -17 -37 0 -12 -2 -29 -3 -37 -2 -8 -6
-37 -10 -65 -3 -27 -8 -63 -11 -80 -6 -39 -13 -80 -21 -129 -3 -21 -7 -47 -9
-58 -5 -22 16 -57 60 -104 17 -18 38 -42 49 -55 10 -13 40 -49 65 -79 108
-127 359 -464 408 -546 10 -18 43 -72 74 -120 30 -49 64 -105 75 -124 10 -19
21 -37 24 -40 3 -3 15 -26 28 -52 13 -26 27 -50 33 -53 5 -4 9 -15 9 -25 0
-10 3 -20 8 -22 4 -1 23 -33 41 -70 34 -65 35 -66 56 -50 32 26 99 88 217 203
l110 106 -53 84 c-80 129 -83 133 -96 147 -7 7 -13 17 -13 22 0 5 -6 15 -12
22 -7 8 -17 21 -23 30 -18 29 -98 143 -104 148 -3 3 -22 28 -41 55 -19 28 -38
52 -42 53 -4 2 -8 8 -8 14 0 8 -66 95 -90 118 -3 3 -25 32 -50 65 -25 33 -50
65 -56 71 -5 6 -26 31 -45 54 -18 23 -45 55 -59 70 -14 15 -45 52 -70 81 -25
29 -55 64 -67 77 -13 14 -56 61 -97 106 -114 125 -224 236 -235 236 -5 0 -17
-7 -25 -16z"/>
<path d="M12908 15390 c-14 -9 -30 -52 -66 -184 -10 -34 -8 -43 16 -80 29 -45
37 -58 76 -130 14 -27 30 -54 35 -60 5 -6 24 -40 42 -76 18 -36 37 -66 41 -68
4 -2 8 -9 8 -16 0 -7 20 -50 45 -96 25 -46 45 -86 45 -89 0 -4 11 -27 25 -52
13 -26 21 -49 18 -53 -4 -3 -1 -6 5 -6 7 0 12 -4 12 -10 0 -5 13 -37 29 -70
16 -33 27 -60 24 -60 -3 0 1 -10 9 -22 8 -13 34 -72 57 -133 23 -60 46 -119
50 -130 15 -35 35 -90 37 -100 5 -30 26 -68 32 -59 4 6 23 19 42 30 19 10 39
24 45 30 18 21 146 114 156 114 5 0 9 7 9 15 0 8 5 15 10 15 16 0 12 24 -15
74 -14 26 -25 54 -25 62 0 7 -4 14 -8 14 -6 0 -23 33 -37 70 -5 14 -41 86 -45
90 -13 13 -40 70 -40 84 0 9 -4 16 -8 16 -5 0 -17 19 -28 43 -10 23 -21 44
-24 47 -3 3 -12 19 -20 35 -8 17 -26 48 -40 70 -15 22 -32 55 -39 73 -8 17
-17 32 -22 32 -5 0 -9 7 -9 15 0 8 -4 15 -10 15 -5 0 -10 5 -10 12 0 11 -190
299 -214 324 -6 6 -18 22 -26 34 -8 12 -19 28 -25 34 -5 6 -36 44 -69 84 -32
39 -61 72 -65 72 -3 0 -14 -5 -23 -10z"/>
<path d="M12787 14994 c-15 -8 -27 -19 -27 -24 0 -5 -5 -21 -11 -37 -6 -15 -9
-29 -7 -29 2 -1 -6 -11 -16 -23 -11 -12 -16 -21 -13 -21 3 0 -1 -16 -9 -35
-13 -31 -12 -37 6 -67 11 -18 26 -46 34 -63 50 -106 76 -166 91 -210 10 -27
21 -54 25 -60 6 -9 34 -101 35 -115 0 -3 3 -10 7 -16 4 -6 9 -21 12 -35 3 -13
12 -51 20 -84 8 -33 17 -71 20 -85 3 -14 12 -56 20 -93 16 -71 26 -131 31
-182 2 -16 6 -46 10 -65 3 -19 7 -52 9 -73 4 -42 13 -57 24 -41 4 6 48 34 97
64 117 69 146 96 141 129 -2 15 -5 26 -6 26 -1 0 -3 11 -5 25 -10 62 -30 144
-61 250 -19 63 -36 122 -38 130 -2 8 -9 29 -16 45 -6 17 -10 30 -9 30 1 0 -5
16 -13 35 -9 19 -30 70 -47 113 -44 108 -142 301 -215 422 l-62 103 -27 -14z"/>
<path d="M16740 12166 c0 -2 8 -10 18 -17 15 -13 16 -12 3 4 -13 16 -21 21
-21 13z"/>
<path d="M15556 11847 c3 -10 9 -15 12 -12 3 3 0 11 -7 18 -10 9 -11 8 -5 -6z"/>
</g>
</svg>
